<?xml version="1.0" standalone="no"?>
<!DOCTYPE svg PUBLIC "-//W3C//DTD SVG 20010904//EN"
 "http://www.w3.org/TR/2001/REC-SVG-20010904/DTD/svg10.dtd">
<svg version="1.0" xmlns="http://www.w3.org/2000/svg"
 width="225.000000pt" height="225.000000pt" viewBox="0 0 225.000000 225.000000"
 preserveAspectRatio="xMidYMid meet">
<metadata>
Created by potrace 1.11, written by Peter Selinger 2001-2013
</metadata>
<g transform="translate(0.000000,225.000000) scale(0.100000,-0.100000)"
fill="#000000" stroke="none">
<path d="M994 2241 c-196 -32 -309 -128 -359 -306 -26 -93 -32 -381 -10 -479
56 -255 285 -469 500 -469 195 0 412 184 487 413 17 51 22 97 26 220 10 370
-73 534 -308 604 -63 19 -260 29 -336 17z m4 -411 c42 -50 127 -94 210 -110
60 -12 230 -9 325 6 l37 6 0 -93 c-1 -191 -49 -320 -164 -435 -99 -98 -182
-139 -286 -139 -66 0 -83 4 -140 35 -37 20 -95 64 -136 105 -115 114 -163 243
-164 434 l0 95 54 52 c58 56 117 82 190 83 34 1 44 -5 74 -39z"/>
<path d="M760 1671 c-33 -9 -36 -37 -15 -127 23 -100 44 -118 141 -122 107 -6
153 13 188 77 14 27 26 56 26 65 0 10 9 16 24 16 18 0 25 -7 29 -27 9 -43 49
-96 87 -116 27 -14 53 -17 117 -15 105 4 124 20 148 122 21 90 18 118 -15 127
-51 14 -243 9 -285 -8 -22 -9 -58 -16 -80 -16 -22 0 -58 7 -80 16 -42 17 -234
22 -285 8z m284 -50 c20 -17 20 -40 0 -90 -23 -58 -55 -76 -136 -76 -55 0 -71
4 -88 21 -39 38 -43 132 -8 156 21 14 213 5 232 -11z m394 10 c33 -20 31 -113
-3 -151 -36 -40 -154 -37 -199 5 -31 29 -54 100 -39 123 5 9 21 20 34 23 35
10 192 10 207 0z"/>
<path d="M745 1006 c-320 -177 -385 -215 -418 -245 -21 -19 -53 -66 -73 -107
-35 -72 -94 -281 -94 -331 0 -17 19 -44 63 -88 106 -106 278 -174 537 -212
142 -21 547 -24 690 -5 265 35 452 101 559 198 74 67 84 90 71 165 -31 168
-91 317 -153 377 -31 30 -191 124 -392 232 l-101 53 -66 -40 c-37 -22 -87 -46
-112 -53 -25 -7 -49 -18 -54 -24 -5 -6 -24 -48 -42 -93 -19 -46 -35 -82 -36
-80 -1 1 -17 38 -35 82 -18 44 -37 85 -43 91 -6 7 -34 19 -62 28 -28 9 -75 32
-105 51 -30 19 -58 35 -64 35 -5 0 -37 -15 -70 -34z m408 -603 c-40 -137 -38
-133 -65 -133 -24 0 -23 1 23 153 27 87 32 97 53 97 l24 0 -35 -117z m-123 47
c0 -14 -16 -28 -52 -46 l-53 -27 53 -23 c38 -17 52 -28 52 -43 0 -28 -5 -27
-94 14 -100 46 -101 61 -3 108 85 42 97 44 97 17z m284 -15 c102 -48 103 -64
0 -111 -88 -40 -94 -41 -94 -13 0 15 13 26 50 42 28 11 50 23 50 26 0 4 -23
16 -50 28 -37 16 -50 27 -50 42 0 28 4 27 94 -14z"/>
</g>
</svg>
